<svg width="1920" height="953" viewBox="0 0 1920 953" fill="none" xmlns="http://www.w3.org/2000/svg">
<g style="mix-blend-mode:multiply" opacity="0.35" clip-path="url(#clip0)">
<path d="M-110 -131H1920V500.472C1899.88 483.945 1876.8 462.851 1848.17 471.984C1824.19 480.728 1794.67 500.135 1771.31 481.584C1779.82 481.662 1787.14 487.37 1795.81 486.591C1791.32 477.069 1778.29 479.949 1770.14 476.524C1769.88 477.588 1769.36 479.716 1769.07 480.805C1751.71 472.243 1731.9 471.517 1714.27 480.624C1718.51 471.335 1732.37 474.008 1740.75 470.271C1736.5 449.229 1720.01 432.209 1701.84 421.778C1686.42 412.023 1667.65 414.955 1650.39 413.502C1653.27 369.342 1623.86 324.118 1580.82 311.794C1562.7 308.862 1543.23 305.177 1525.76 313.039C1499.98 322.691 1479.45 344.745 1472.41 371.391C1471.04 377.644 1463.82 373.701 1459.43 373.908C1446.17 368.07 1435.06 377.048 1424.18 382.704C1415.93 377.229 1408.71 370.198 1400.04 365.45C1383.19 360.753 1364.14 359.845 1349.03 369.938C1333.79 376.062 1328.13 392.693 1319.83 405.51C1308.69 404.421 1295.06 402.63 1285.59 410.206C1280.68 413.372 1275.59 418.821 1269.28 415.499C1257.24 410.855 1243.4 406.289 1231.18 412.905C1220.17 416.849 1218.92 429.744 1215.7 439.344C1206.07 437.761 1195.38 438.358 1187.28 444.325C1179.67 449.93 1177.62 459.737 1174.04 467.962C1154.86 464.537 1134.95 460.23 1115.74 466.535C1084.56 485.216 1048.29 456.338 1016.65 473.618C1009.64 478.678 993.469 479.612 995.727 491.521C1039.94 492.351 1084.2 490.769 1128.43 492.403C1196.62 496.606 1265.05 493.026 1333.35 494.479C1400.64 500.836 1468.47 493.156 1535.83 499.097C1584.09 500.68 1632.48 497.774 1680.71 500.862C1692.39 495.88 1700.1 484.075 1713 481.921C1633.49 543.932 1543.36 590.868 1455.36 639.646C1429.3 649.454 1406.84 668.836 1380.57 676.178L1379.48 678.046C1375.2 679.448 1371.56 682.12 1367.64 684.196L1366.66 682.094C1366.71 673.869 1367.33 665.774 1366.94 657.601L1364.5 657.861C1358.4 660.17 1360.66 671.352 1357.39 676.412C1357.18 674.414 1356.82 670.444 1356.61 668.472C1350.92 666.267 1356.9 677.917 1352.15 677.294C1349.47 676.749 1348.28 677.995 1348.56 681.056C1345.21 679.525 1346.98 674.673 1345.79 671.793C1340.96 672.52 1336.08 673.765 1331.17 673.065C1324.11 666.604 1330.86 649.35 1318.09 652.568C1318.09 654.643 1318.06 658.795 1318.06 660.87C1317.83 662.038 1317.33 664.347 1317.07 665.515C1296.2 659.002 1276.4 649.402 1255.84 642.008C1249.04 638.842 1241.64 636.74 1234.08 637.311C1223.18 637.104 1212.33 636.715 1201.5 637.311C1192.21 638.064 1181.93 638.323 1174.61 644.758C1171.55 645.951 1168.41 646.989 1165.27 647.975C1156.49 650.31 1147.09 652.931 1140.81 659.858L1138.97 660.481C1130.74 662.245 1124.35 668.317 1117.58 672.883L1115.89 673.688C1108.62 676.334 1101.93 680.563 1096.73 686.323C1094.55 687.387 1092.37 688.425 1090.19 689.437C1084.4 692.265 1076.04 692.421 1072.93 698.803C1062.83 708.585 1048.42 711.205 1035.47 715.435C1015.61 717.873 995.753 721.713 975.661 719.586C967.484 718.081 958.917 715.876 951 719.378C946.768 719.482 938.28 719.69 934.022 719.819C931.063 714.526 928.986 708.766 925.741 703.655L925.352 701.164C925.586 699.296 926.079 695.534 926.312 693.666C930.803 699.633 931.738 710.712 943.99 704.408C963.564 706.483 983.37 706.639 1002.84 703.448C1036.69 692.784 1065.87 671.586 1096.4 654.124C1104.08 642.526 1094.61 642.604 1089 639.984C1081.73 638.557 1079.34 630.513 1073.63 626.803C1062.29 619.175 1052.63 609.316 1041 602.129C1036.38 599.326 1032.12 594.215 1033.45 588.533C1035.91 581.372 1027.89 575.716 1021.76 574.341C1024.98 579.426 1030.69 583.707 1029.76 590.453C1023.35 590.09 1017.48 587.417 1011.46 585.523C1012.08 588.144 1012.73 590.738 1013.41 593.359C1008.73 593.073 1004.92 590.531 1001.36 587.755C1005.33 582.358 998.972 580.23 995.208 577.584C993.832 568.944 998.972 568.529 1005.07 572.472C1002.45 581.579 1010.5 574.859 1013.9 571.72C1009.85 564.948 1002.19 558.228 993.78 559.37C989.393 563.625 985.707 568.425 982.773 573.744C972.312 569.022 965.121 559.785 958.502 550.782C962.37 550.756 966.212 551.015 970.079 551.093C950.688 529.999 917.876 536.459 896.719 518.297C885.998 511.759 904.922 539.132 881.507 523.097C883.22 524.576 884.934 526.055 886.673 527.56C882 527.975 871.461 534.384 875.666 525.406C870.76 525.925 865.932 527.015 860.999 527.171C855.937 525.095 851.317 521.67 845.683 521.333C846.125 519.102 846.592 516.896 847.163 514.691C844.178 516.481 841.478 518.686 838.415 520.321C839.298 513.835 830.601 508.256 834.106 517.545C826.11 516.611 817.881 515.21 811.028 510.721C814.507 509.19 821.048 511.733 822.424 507.218C811.392 507.27 800.411 506.544 789.456 507.452C791.169 516.896 777.307 517.856 770.74 517.208C758.201 499.279 743.197 476.758 718.354 477.796C707.14 474.942 697.587 484.282 687.151 486.643C680.921 483.452 676.975 477.562 672.355 472.606C647.59 441.705 607.094 422.531 567.376 427.045C541.106 432.027 514.498 444.896 499.026 467.469C492.017 475.538 488.149 485.787 481.374 494.064C472.288 496.529 464.838 489.03 458.504 483.893C429.793 460.568 399.966 430.159 359.885 432.053C327.229 437.943 300.128 463.551 290.782 495.179C287.771 503.119 285.331 517.259 271.91 509.164C257.035 506.258 242.472 501.744 227.468 499.746C207.272 501.873 187.803 513.549 180.171 533.061C152.991 526.107 123.58 520.684 96.7641 532.23C92.5068 533.813 89.5474 537.368 86.64 540.663C111.95 541.597 137.416 539.495 162.57 543.205C288.991 542.271 415.022 550.133 541.339 551.923C560.393 554.725 579.577 556.594 598.865 556.749C594.088 562.924 581.654 559.318 574.385 563.443C581.68 563.132 589.26 562.405 596.658 562.172C588.299 571.435 571.296 561.757 564.676 569.515C571.27 569.54 584.483 569.618 591.077 569.644C588.715 581.164 574.463 579.659 565.923 576.079C562.755 579.763 560.16 586.094 554.293 583.266C543.65 578.284 553.099 602.388 536.277 590.453C527.633 591.05 519.586 594.63 511.149 596.395C499.727 617.774 469.614 623.093 460.607 647.197C469.355 646.444 472.652 638.946 477.688 633.056C490.615 633.783 489.525 616.866 502.011 615.335C512.317 610.353 509.202 589.96 526.023 598.003C548.764 589.83 537.367 605.969 529.891 609.445C516.522 612.533 508.241 624.286 498.974 633.393C492.406 644.187 472.496 642.215 473.275 657.523C464.189 661.726 462.398 649.013 454.169 651.115C449.652 656.485 444.901 661.649 440.696 667.279C471.613 686.479 509.591 686.193 544.169 694.159C569.427 700.23 595.386 704.641 619.372 714.993C640.243 723.27 659.842 734.764 681.466 741.095C702.545 747.115 724.429 743.197 745.871 742.47C773.206 738.578 800.826 737.696 828.187 734.323C845.632 734.064 855.782 717.744 871.253 712.295C885.427 705.108 901.677 705.938 916.993 703.577C917.824 702.436 919.511 700.152 920.342 699.011C920.524 704.018 917.097 707.91 915.903 712.555C914.787 718.496 911.801 723.867 907.804 728.382C905.986 726.436 904.221 724.464 902.508 722.466C900.847 719.845 899.626 720.39 898.848 724.101C888.62 723.192 894.798 740.057 884.96 737.982C883.947 733.415 883.116 728.823 881.922 724.308C881.455 721.662 880.365 717.173 876.86 717.666C873.122 719.612 873.849 724.126 874.187 727.577C872.447 731.236 869.618 734.427 868.839 738.5C868.709 742.989 868.45 751.992 868.32 756.481C864.919 756.092 861.622 755.262 858.352 754.354C856.56 751.474 856.197 747.322 853.082 745.506C851.031 747.504 849.084 749.605 847.241 751.785C843.659 757.934 843.866 765.77 840.907 772.282C841.816 761.151 829.9 774.929 829.771 779.988C829.303 780.429 828.317 781.363 827.824 781.804C824.345 781.752 820.867 781.934 817.388 781.726C814.455 777.523 815.96 768.598 809.081 769.22C809.003 772.464 809.055 775.759 809.211 779.028C809.211 780.403 809.185 783.153 809.185 784.555L808.744 786.89C804.305 791.352 801.709 799.629 793.947 797.891C792.675 793.739 795.375 785.307 788.262 787.486C783.07 786.734 786.678 795.063 785.406 798.15C783.018 800.096 780.578 801.99 778.034 803.755C777.956 802.379 777.801 799.655 777.723 798.28C778.008 791.949 775.724 785.437 770.324 781.804C770.039 786.189 769.961 790.6 770.013 795.011C769.987 798.436 769.987 801.86 769.987 805.311C756.306 807.517 742.574 811.123 730.659 818.388L728.764 819.089C724.429 820.126 720.275 823.032 715.654 821.735C715.551 820.412 715.395 817.765 715.317 816.442C720.353 805.052 700.339 804.896 705.167 816.286C705.063 820.542 705.167 824.823 705.115 829.104C671.68 832.788 641.334 816.183 609.118 810.864C580.356 804.04 547.621 813.095 520.728 797.943C500.168 787.383 489.473 764.421 469.121 753.471C456.245 744.987 438.723 739.383 424.861 748.775C394.359 766.989 356.381 771.789 322.634 759.88C294.105 751.94 266.043 742.211 239.539 728.875C219.602 720.183 196.265 730.769 176.484 721.48C170.15 718.678 163.583 716.135 156.6 715.59C151.148 712.814 149.461 707.573 151.486 699.867C151.226 692.472 151.693 685.078 149.124 678.072C143.49 688.892 135.703 700.386 137.26 712.996L136.378 715.149C129.966 714.215 119.063 716.913 124.956 702.799C124.359 698.258 120.672 696.546 116.701 695.482C114.416 689.229 113.715 682.094 112.599 675.763C99.0225 676.827 106.499 697.791 98.4514 704.589C96.7122 692.083 88.3274 682.328 85.0825 670.392L84.7969 668.161C86.3026 661.13 82.9019 660.403 77.139 662.686C74.6729 649.376 80.6694 633.471 74.0239 621.355C64.7046 628.49 71.1684 646.574 64.2893 655.499C55.3074 660.766 60.3694 673.091 58.085 681.705C52.6077 676.438 46.0919 653.009 48.0389 680.563C33.6056 678.955 18.5753 680.2 4.71317 675.27C-7.9289 666.552 -21.5315 658.431 -30.3835 645.484C-48.8404 640.113 -68.128 638.297 -87.0262 634.795L-88.9991 634.354C-94.9437 628.879 -102.238 625.558 -110 623.56V-131ZM1027.19 58.1459C1022.91 56.8746 1026.49 68.3427 1028.98 68.5762C1032.9 77.8649 1043.1 65.5665 1032.17 64.2432L1034.85 63.0497C1038.92 64.7362 1043.18 54.4616 1037.47 55.8108C1034.56 56.8746 1026.02 53.0865 1027.19 58.1459ZM871.201 164.576C870.968 169.714 872.889 174.539 874.887 179.158C882.727 181.986 875.095 197.995 891.605 187.85C892.332 186.812 893.786 184.684 894.513 183.646C883.298 181.934 879.404 170.181 871.201 164.576ZM897.576 182.635C899.003 188.55 899.523 195.841 907.648 193.402C904.507 189.614 903.365 182.894 897.576 182.635ZM1194.03 189.251C1180.97 191.768 1169.91 198.825 1159.27 206.271C1145.36 200.952 1128.92 202.95 1119.94 215.664C1103.46 212.758 1086.9 214.185 1070.96 219.011C1059.85 219.011 1042.48 213.303 1034.46 224.252C1078.67 223.785 1123.16 226.795 1167.19 222.176C1247.43 220.645 1327.82 223.759 1408.04 220.438C1412.68 220.671 1418.39 215.015 1408.66 213.977C1394.15 203.729 1376.05 211.331 1359.85 211.123C1350.41 191.378 1324.52 184.269 1304.72 190.626C1288.73 191.871 1277.02 207.387 1260.85 206.271C1243.69 188.498 1217.44 184.97 1194.03 189.251ZM459.386 210.111C430.494 212.991 412.297 239.456 406.067 265.765C397.266 267.037 390.725 257.826 381.561 259.331C368.893 255.958 355.239 261.822 345.244 269.631C337.509 276.196 329.565 288.079 317.546 279.776C302.646 269.268 283.592 268.412 266.536 273.938C256.698 276.792 250.961 288.805 240.474 289.298C220.848 283.435 195.435 283.045 180.482 299.106C206.96 305.956 234.321 299.262 261.189 301.986C365.025 302.842 468.888 301.856 572.75 302.427C595.126 307.642 617.711 301.182 640.191 304.84C713.759 304.97 787.328 304.892 860.896 304.866C859.572 311.638 881.948 303.335 874.654 298.872C861.077 291.115 845.865 284.68 829.926 284.732C819.023 286.548 805.421 293.605 796.621 283.538C789.897 271.889 775.49 265.091 762.225 265.973C747.662 262.859 738.031 275.339 727.855 283.227C710.826 274.509 701.714 252.766 682.037 247.292C659.739 238.704 634.922 254.79 627.004 275.962C614.752 270.643 599.462 267.815 587.495 275.469C584.509 276.377 579.577 281.437 577.344 277C552.398 237.77 507.437 205.493 459.386 210.111ZM1416.55 216.805C1416.45 217.973 1416.29 220.308 1416.21 221.476C1426.93 216.935 1438.9 220.412 1450.19 219.192L1450.06 216.779C1438.9 216.26 1427.63 216.676 1416.55 216.805ZM957.463 237.303C956.347 242.57 954.426 247.681 954.218 253.104C959.618 252.87 964.758 250.976 970.027 249.861C964.81 246.747 960.552 242.518 957.463 237.303ZM750.595 351.205C746.494 353.878 737.304 352.243 738.81 359.275C742.444 359.508 746.079 359.612 749.739 359.56C756.28 358.885 756.748 348.948 759.837 343.837C753.944 342.28 749.972 345.082 750.595 351.205ZM1107.25 367.24C1108.26 372.585 1112.36 376.606 1113.74 381.873C1116.8 389.216 1127.05 385.739 1133.52 387.841C1134.89 381.536 1127.78 380.031 1123.58 377.696C1123.08 388.36 1117.58 376.892 1118.05 372.351C1119.63 364.931 1111.79 367.448 1107.25 367.24ZM629.6 413.813C630.742 414.669 633.001 416.33 634.117 417.16C632.196 421.778 633.286 430.808 639.958 429.484C638.738 424.321 639.542 419.132 640.191 413.969C636.661 413.761 633.131 413.709 629.6 413.813ZM866.295 439.966C858.352 443.417 849.577 436.931 842.049 443.443L839.998 442.976C838.701 455.067 861.778 440.044 863.414 450.267C864.997 455.482 871.305 452.265 868.839 447.231C869.592 445.83 871.123 443.002 871.876 441.575C877.12 440.382 880.91 433.584 884.466 429.303C877.717 430.548 870.111 434.57 866.295 439.966ZM855.626 512.459C855.133 516.818 855.6 521.229 860.221 522.942C860.065 512.849 870.734 521.878 876.237 522.371C883.869 514.405 858.663 509.683 855.626 512.459ZM978.205 543.984C969.171 550.159 987.316 555.789 988.017 546.656C984.772 545.774 981.683 543.335 978.205 543.984ZM545.207 577.843C542.092 580.282 537.835 578.933 534.512 580.697C535.888 587.806 555.954 578.777 545.207 577.843ZM1050.45 584.926C1048.16 597.796 1060.83 610.146 1072.96 612.014C1077.08 616.606 1082.07 619.409 1088.35 619.668C1089.1 625.714 1095.75 623.716 1100.06 624.001C1095.51 618.578 1087.91 617.203 1082.74 612.585C1074.25 608.433 1069.63 599.482 1061.82 594.319C1057.25 591.698 1056.99 583.655 1050.45 584.926ZM1102.08 626.673C1100.94 634.95 1116.15 631.292 1108.23 644.109C1110.57 649.636 1118.95 648.131 1120.62 642.76C1106.44 645.432 1114.15 627.115 1102.08 626.673Z" fill="#94BCEB" fill-opacity="0.5"/>
<path d="M1027.19 58.1459C1026.02 53.0864 1034.56 56.8746 1037.47 55.8108C1043.18 54.4616 1038.92 64.7362 1034.85 63.0497C1035.57 57.8605 1030.8 58.4573 1027.19 58.1459Z" fill="#5E96BF" fill-opacity="0.3"/>
<path d="M1028.98 68.5762C1029.79 67.4865 1031.37 65.307 1032.17 64.2432C1043.1 65.5665 1032.9 77.8648 1028.98 68.5762Z" fill="#5E96BF" fill-opacity="0.3"/>
<path d="M897.576 182.635C903.365 182.894 904.507 189.614 907.648 193.402C899.523 195.841 899.003 188.55 897.576 182.635Z" fill="#5E96BF" fill-opacity="0.3"/>
<path d="M957.463 237.303C960.552 242.518 964.81 246.747 970.027 249.861C964.758 250.976 959.618 252.87 954.218 253.104C954.426 247.681 956.347 242.57 957.463 237.303Z" fill="#5E96BF" fill-opacity="0.3"/>
<path d="M750.595 351.205C749.972 345.082 753.944 342.28 759.837 343.837C756.748 348.948 756.28 358.885 749.739 359.56C750.284 356.81 750.673 354.008 750.595 351.205Z" fill="#5E96BF" fill-opacity="0.3"/>
<path d="M1107.25 367.24C1111.79 367.448 1119.63 364.931 1118.05 372.351C1117.58 376.892 1123.08 388.36 1123.58 377.696C1127.78 380.031 1134.89 381.536 1133.52 387.841C1127.05 385.739 1116.8 389.216 1113.74 381.873C1112.36 376.606 1108.26 372.585 1107.25 367.24Z" fill="#5E96BF" fill-opacity="0.3"/>
<path d="M629.6 413.813C633.131 413.709 636.661 413.761 640.191 413.969C639.542 419.132 638.738 424.321 639.958 429.484C633.286 430.808 632.196 421.778 634.117 417.16C633.001 416.33 630.742 414.669 629.6 413.813Z" fill="#5E96BF" fill-opacity="0.3"/>
<path d="M1848.17 471.984C1876.8 462.851 1899.88 483.945 1920 500.472V636.689C1901.36 643.694 1882.72 650.907 1865.07 660.118C1843.24 675.011 1820.19 687.984 1796.9 700.464C1767.49 711.102 1734.89 712.632 1707.14 727.811C1691.92 735.958 1689.28 754.717 1678.04 766.418C1675.54 766.107 1673.13 765.536 1670.79 764.706L1669 763.798C1666.2 757.156 1657.58 757.259 1651.79 754.457L1650.13 753.601C1646.75 741.666 1630.76 747.192 1624.3 738.034C1621.68 732.87 1616.07 733.078 1611.09 732.715L1610.41 730.847C1610.78 721.117 1610.18 711.517 1608.02 702.047C1599.95 700.62 1602.88 712.866 1600.96 717.925C1599.28 720.39 1597.3 722.648 1595.51 725.009C1591.96 727.5 1594.81 735.491 1589.9 735.491C1580.64 737.229 1582.87 724.075 1581.93 718.211C1575.91 716.421 1565.32 718.522 1570.72 705.445C1570.1 701.891 1569.63 697.558 1564.91 699.659C1561.87 706.354 1559.66 713.489 1559.48 720.883L1559.12 723.478C1558.13 722.959 1556.18 721.895 1555.2 721.376C1550.16 709.285 1544.71 697.298 1542.71 684.248C1539.7 683.236 1536.61 682.665 1533.55 681.99C1533.39 672.598 1533.11 653.813 1532.98 644.421C1521.58 644.576 1526.15 657.886 1525.58 665.826L1525.11 667.772C1521.11 677.346 1516.75 686.79 1518.1 697.61L1517.71 699.971C1515.12 700.075 1512.55 700.049 1510 699.789C1509.38 698.933 1508.16 697.169 1507.54 696.287C1503.62 705.757 1514.26 723.426 1501.72 728.382C1500.45 720.494 1500.03 712.555 1499 704.693C1497.85 704.615 1495.54 704.46 1494.37 704.382C1494.5 708.196 1494.74 715.798 1494.87 719.612C1495.28 723.841 1493.57 725.605 1489.68 724.905C1482.49 716.654 1467.35 725.969 1461.17 716.706C1458.16 709.804 1463.22 700.126 1458.47 693.718C1454.55 687.335 1454.97 699.192 1453.2 701.943C1445.7 714.267 1429.74 694.989 1432.31 685.83C1431.97 678.098 1432.2 670.522 1432.02 662.842C1431.94 660.87 1431.79 656.901 1431.71 654.929C1421.66 655.344 1420.42 666.111 1422.18 673.947C1421.69 677.787 1421.95 682.795 1416.5 681.134C1411.25 681.887 1414.91 673.324 1413.56 670.263C1414.47 659.443 1405.96 670.6 1404.84 675.192C1396.82 678.358 1388.67 677.605 1380.57 676.178C1406.84 668.836 1429.3 649.454 1455.36 639.646C1543.36 590.868 1633.49 543.932 1713 481.921L1714.27 480.624C1731.9 471.517 1751.71 472.243 1769.07 480.805L1771.31 481.584C1794.67 500.135 1824.19 480.728 1848.17 471.984Z" fill="#5E96BF" fill-opacity="0.3"/>
<path d="M954.244 558.773C958.943 562.847 964.991 566.505 966.497 573.017C960.968 569.852 954.789 565.752 954.244 558.773Z" fill="#5E96BF" fill-opacity="0.3"/>
<path d="M64.2894 655.499C71.1685 646.574 64.7047 628.49 74.024 621.355C80.6695 633.471 74.673 649.376 77.1391 662.686C82.902 660.403 86.3027 661.13 84.797 668.161C77.9698 667.435 65.2758 671.378 74.2577 655.136C73.8164 650.155 76.6719 633.056 70.0782 643.097C70.7791 657.471 60.681 668.965 60.7589 683.236C41.1598 682.769 20.9896 684.533 2.14332 677.839C-10.5507 669.173 -24.1273 661 -32.9793 648.079C-50.1902 640.243 -71.269 646.418 -87.0261 634.795C-68.1279 638.297 -48.8403 640.113 -30.3834 645.484C-21.5314 658.431 -7.92881 666.552 4.71326 675.27C18.5754 680.2 33.6057 678.955 48.039 680.563C46.092 653.009 52.6078 676.438 58.0851 681.705C60.3696 673.091 55.3075 660.766 64.2894 655.499Z" fill="#5E96BF" fill-opacity="0.3"/>
<path d="M1364.5 657.861L1366.94 657.601C1367.33 665.774 1366.71 673.869 1366.66 682.094L1364.48 680.771C1364.32 673.143 1364.32 665.411 1364.5 657.861Z" fill="#5E96BF" fill-opacity="0.3"/>
<path d="M1352.15 677.294C1356.9 677.917 1350.93 666.267 1356.61 668.472C1356.82 670.444 1357.18 674.414 1357.39 676.412C1356.45 681.575 1353.24 685.804 1348.56 681.056C1348.28 677.995 1349.47 676.749 1352.15 677.294Z" fill="#5E96BF" fill-opacity="0.3"/>
<path d="M85.0824 670.392C88.3273 682.328 96.7121 692.083 98.4513 704.589C106.499 697.791 99.0224 676.827 112.599 675.763C113.715 682.094 114.416 689.229 116.701 695.482C120.672 696.546 124.358 698.258 124.956 702.799C119.063 716.913 129.966 714.215 136.378 715.149L135.521 717.173C116.623 726.643 128.071 704.018 118.206 699.685C111.197 697.61 112.132 688.347 108.757 682.95C103.28 688.97 109.043 710.972 96.0112 706.587C92.8442 694.211 83.5508 683.91 85.0824 670.392Z" fill="#5E96BF" fill-opacity="0.3"/>
<path d="M137.26 712.996C135.703 700.386 143.49 688.892 149.124 678.072C151.693 685.078 151.226 692.472 151.486 699.867C150.499 696.131 149.695 692.317 148.76 688.581C142.79 695.378 142.011 705.29 137.26 712.996Z" fill="#5E96BF" fill-opacity="0.3"/>
<path d="M1367.64 684.196C1371.56 682.12 1375.2 679.448 1379.48 678.047L1379.56 680.096C1377.51 683.936 1370.78 690.059 1367.64 684.196Z" fill="#5E96BF" fill-opacity="0.3"/>
<path d="M920.342 699.011C919.459 694.418 922.367 687.776 926.312 693.666C926.079 695.534 925.586 699.296 925.352 701.164C924.365 703.733 923.405 706.328 922.444 708.922C920.212 710.064 918.031 711.283 915.903 712.555C917.097 707.91 920.524 704.018 920.342 699.011Z" fill="#5E96BF" fill-opacity="0.3"/>
<path d="M156.6 715.59C163.583 716.135 170.151 718.678 176.485 721.48C196.265 730.769 219.603 720.183 239.539 728.875C266.043 742.211 294.105 751.94 322.634 759.88C356.381 771.789 394.359 766.989 424.861 748.775C438.723 739.383 456.246 744.987 469.121 753.471C489.473 764.421 500.168 787.383 520.728 797.943C547.622 813.095 580.356 804.04 609.119 810.864C641.334 816.183 671.68 832.788 705.115 829.104C705.479 841.402 703.272 855.361 690.059 859.85C687.852 854.142 686.243 848.2 683.725 842.596C673.912 837.718 680.584 853.934 678.663 859.902C676.82 868.542 676.898 880.321 667.708 884.758C658.986 888.857 651.094 894.436 642.606 898.924C588.896 879.205 531.138 872.797 475.871 858.319C461.463 854.583 450.742 844.256 440.904 833.644C432.882 823.681 416.632 826.224 409.312 815.793C409.156 810.423 409 805.052 408.663 799.707C407.598 793.506 401.186 802.172 402.017 805.908C409.753 824.589 385.455 821.683 380.705 810.967C375.071 815.093 361.183 822.436 358.536 812.395C359.314 801.809 350.073 796.542 345.634 788.472C338.417 784.892 334.523 795.582 328.683 798.15C319.337 794.025 316.144 783.153 308.019 777.342C302.464 779.054 294.884 785.982 290.263 779.184C285.019 771.037 277.673 763.772 275.83 754.016C264.771 751.344 263.266 770.077 252.726 767.871C247.093 765.951 247.924 773.865 245.432 777.004C240.526 772.256 235.048 769.532 228.143 771.27C217.759 759.179 209.842 744.65 196.447 735.465C185.466 724.568 168.541 725.009 156.6 715.59Z" fill="#5E96BF" fill-opacity="0.3"/>
<path d="M876.86 717.666C880.365 717.173 881.455 721.662 881.922 724.308C878.703 723.556 876.108 725.112 874.187 727.577C873.849 724.126 873.122 719.612 876.86 717.666Z" fill="#5E96BF" fill-opacity="0.3"/>
<path d="M951 719.378C958.917 715.876 967.484 718.081 975.661 719.586C967.458 719.742 959.125 719.43 951 719.378Z" fill="#5E96BF" fill-opacity="0.3"/>
<path d="M829.771 779.988C829.9 774.929 841.816 761.151 840.907 772.282C838.259 776.044 833.509 777.523 829.771 779.988Z" fill="#5E96BF" fill-opacity="0.3"/>
<path d="M809.081 769.221C815.96 768.598 814.455 777.523 817.388 781.727C820.867 781.934 824.345 781.752 827.824 781.804C826.63 782.946 824.267 785.229 823.073 786.371C816.869 787.902 813.65 782.064 809.211 779.028C809.055 775.759 809.003 772.464 809.081 769.221Z" fill="#5E96BF" fill-opacity="0.3"/>
<path d="M770.324 781.804C775.724 785.437 778.008 791.949 777.723 798.28C776.061 794.674 773.751 792.442 770.013 795.011C769.961 790.6 770.039 786.189 770.324 781.804Z" fill="#5E96BF" fill-opacity="0.3"/>
<path d="M778.034 803.755C780.578 801.99 783.018 800.096 785.407 798.15C789.197 804.248 777.982 813.951 778.034 803.755Z" fill="#5E96BF" fill-opacity="0.3"/>
<path d="M730.659 818.388C742.574 811.123 756.306 807.517 769.987 805.311C770.48 812.083 769.39 821.216 761.524 823.032C755.372 825.938 755.528 815.326 749.557 815.845C746.987 819.685 746.805 824.408 745.689 828.766C734.994 835.279 730.555 825.783 730.659 818.388Z" fill="#5E96BF" fill-opacity="0.3"/>
<path d="M705.167 816.286C700.339 804.896 720.353 805.052 715.317 816.442C712.228 809.956 708.438 809.956 705.167 816.286Z" fill="#5E96BF" fill-opacity="0.3"/>
<path d="M715.655 821.735C720.275 823.032 724.429 820.127 728.764 819.089C725.545 822.669 722.404 826.431 718.406 829.208C716.693 826.976 715.784 824.485 715.655 821.735Z" fill="#5E96BF" fill-opacity="0.3"/>
<path d="M1028.98 68.5762C1026.49 68.3427 1022.91 56.8746 1027.19 58.146C1030.8 58.4573 1035.57 57.8606 1034.85 63.0498L1032.17 64.2433C1031.37 65.3071 1029.79 67.4865 1028.98 68.5762Z" fill="#6B567A"/>
<path d="M738.81 359.275C737.304 352.243 746.494 353.878 750.595 351.205C750.673 354.008 750.284 356.81 749.739 359.56C746.078 359.612 742.444 359.508 738.81 359.275Z" fill="#6B567A"/>
<path d="M866.295 439.967C870.111 434.57 877.717 430.548 884.466 429.303C880.91 433.584 877.12 440.382 871.876 441.575C870.474 441.186 867.671 440.382 866.295 439.967Z" fill="#6B567A"/>
<path d="M839.998 442.976L842.049 443.443C850.849 445.571 859.909 445.752 868.839 447.231C871.305 452.265 864.997 455.482 863.413 450.267C861.778 440.044 838.7 455.067 839.998 442.976Z" fill="#6B567A"/>
<path d="M-110 626.232C-103.173 629.372 -96.657 633.705 -88.9991 634.354L-87.0262 634.795C-71.2691 646.418 -50.1903 640.243 -32.9794 648.079C-24.1274 661 -10.5508 669.173 2.14323 677.839C20.9895 684.533 41.1597 682.769 60.7588 683.236C60.6809 668.965 70.779 657.471 70.0781 643.097C76.6718 633.056 73.8163 650.155 74.2576 655.136C65.2757 671.378 77.9697 667.435 84.7969 668.161L85.0825 670.392C83.5509 683.91 92.8443 694.211 96.0113 706.587C109.043 710.972 103.28 688.97 108.757 682.95C112.132 688.347 111.197 697.61 118.206 699.685C128.071 704.018 116.623 726.643 135.521 717.173L136.378 715.149L137.26 712.996C142.011 705.29 142.79 695.378 148.76 688.581C149.695 692.317 150.499 696.131 151.486 699.867C149.461 707.573 151.148 712.814 156.6 715.59C168.541 725.009 185.466 724.568 196.447 735.465C209.842 744.65 217.759 759.179 228.143 771.27C235.048 769.532 240.525 772.256 245.432 777.004C247.924 773.865 247.093 765.951 252.726 767.871C263.266 770.077 264.771 751.344 275.83 754.016C277.673 763.772 285.019 771.037 290.263 779.184C294.884 785.982 302.464 779.054 308.019 777.342C316.144 783.154 319.337 794.025 328.682 798.15C334.523 795.582 338.417 784.892 345.634 788.472C350.073 796.542 359.314 801.809 358.535 812.395C361.183 822.436 375.071 815.093 380.704 810.968C385.455 821.683 409.753 824.589 402.017 805.908C401.186 802.172 407.598 793.506 408.662 799.707C400.33 812.81 406.352 830.505 397.708 843.556C391.919 851.236 394.774 861.588 393.165 870.539C386.701 872.252 385.221 866.674 383.482 861.848C378.991 873.264 389.323 885.406 382.755 896.096C372.086 900.118 374.942 888.416 374.942 880.425C369.983 883.175 370.373 888.857 369.594 893.761C359.392 888.312 346.984 892.464 337.197 885.329C336.003 875.028 334.783 864.676 333.329 854.427C328.501 860.602 328.89 868.957 325.905 876.014C322.374 872.252 319.337 867.737 313.522 869.061C307.162 851.314 308.798 831.932 307.682 813.355C295.948 814.315 303.502 834.319 292.989 839.56C291.509 835.331 290.315 831.05 289.017 826.821C281.1 824.952 285.928 840.442 277.595 838.574C272.87 837.951 267.808 843.244 263.837 839.301C257.658 833.203 255.686 844.879 251.48 847.863C248.08 853.026 243.563 846.643 241.2 843.867C242.576 832.71 241.953 821.476 240.24 810.423C232.738 818.959 237.826 835.409 227.883 841.999C225.677 837.899 224.249 833.411 221.887 829.415C215.215 830.816 208.077 832.918 202.08 828.377C201.898 821.605 201.613 814.859 201.223 808.139C194.318 807.595 195.98 816.78 193.098 821.009C185.518 822.021 179.859 815.638 173.317 812.939C151.304 801.809 127.967 790.911 102.864 790.133C71.5059 784.996 43.3403 801.809 16.9918 815.923C4.16802 814.029 -2.6592 793.636 -18.4423 800.771C-23.5043 804.299 -24.5946 814.418 -31.9151 813.147C-52.8641 808.477 -63.4554 786.527 -82.3017 777.861C-91.8286 777.16 -101.018 779.858 -110 782.531V626.232Z" fill="#6B567A"/>
<path d="M1174.61 644.758C1181.93 638.323 1192.21 638.064 1201.5 637.311C1193.74 643.045 1183.8 643.279 1174.61 644.758Z" fill="#6B567A"/>
<path d="M1234.08 637.311C1241.64 636.741 1249.04 638.842 1255.84 642.008C1248.18 642.76 1240.73 641.099 1234.08 637.311Z" fill="#6B567A"/>
<path d="M1865.07 660.118C1882.72 650.907 1901.36 643.694 1920 636.689V817.817C1902.71 824.952 1883.97 826.068 1865.8 829.441C1850.01 835.72 1842.1 853.389 1826.05 859.486C1812.14 866.803 1795.76 866.492 1780.57 865.999C1776.63 863.586 1772.92 865.065 1769.41 867.478C1765.28 860.991 1767.13 852.481 1762.69 846.202C1756.04 835.746 1758.04 822.41 1756.28 810.76L1754.17 811.175C1753.08 824.849 1751.55 838.522 1751.14 852.248C1748.59 850.691 1746.2 848.952 1743.69 847.448C1739.95 862.6 1737.33 877.701 1729.28 891.452C1724.09 881.93 1721.18 871.318 1715.57 862.055C1712.92 868.801 1720.58 884.135 1709.76 883.512C1698.21 883.512 1709.16 909.692 1689.85 898.795C1687.43 887.742 1684.34 875.858 1676.71 867.141C1673.47 876.689 1679.75 889.532 1672.3 897.783C1662.38 903.621 1651.84 908.187 1640.58 910.652C1623.75 922.224 1610.23 937.48 1598.89 954.293C1595.56 958.704 1591.51 952.632 1588.19 951.309C1587.91 953.125 1587.36 956.784 1587.07 958.626C1577.78 962.129 1581.18 946.353 1572.17 949.778C1560.99 948.87 1559.9 931.928 1548.84 932.628C1549.23 937.506 1550.78 942.28 1550.89 947.236C1540.58 949.337 1540.09 962.751 1530.77 966.799C1526.59 964.282 1523.6 959.664 1518.59 958.808C1519.09 969.16 1505.2 968.096 1506.13 978.682C1495.7 988.516 1490.51 967.318 1479.42 969.134C1482.02 983.223 1461.2 984.338 1467.71 1000.19C1458.86 1000.92 1450.14 1000.32 1445.34 992.252C1443.81 995.443 1442.61 998.764 1441.29 1002.06C1420.52 1005.72 1396.46 1004.73 1380.99 1021.83C1373.15 1030.99 1363.85 1039.47 1351.76 1042.12C1316.45 1050.68 1280.58 1056.6 1245.38 1065.68C1218.9 1070.32 1192.89 1077.85 1168.77 1089.89C1154.78 1091.26 1142.01 1084.26 1128.27 1083.22C1101.95 1080.91 1075.94 1076.21 1050.11 1070.84C1015.51 1065.45 980.515 1061.45 946.872 1051.46C946.846 1050.45 946.794 1048.42 946.794 1047.41C955.309 1042.87 963.823 1038.31 972.571 1034.18C1004.19 1018.92 1041.23 1025.54 1073.71 1013.09C1117.5 994.639 1151.3 957.977 1195.72 940.542C1238.86 920.797 1287.14 918.903 1333.61 924.455C1356.45 925.052 1384.41 922.25 1394.74 898.224C1403.88 876.299 1424.44 860.369 1448.3 858.345C1484.43 854.297 1522.51 863.223 1557.59 851.028C1584.19 841.921 1592.99 812.472 1606.44 790.574C1617.24 775.136 1637.41 772.23 1654.28 778.354C1662.12 780.299 1677.05 774.565 1670.79 764.706C1673.13 765.536 1675.54 766.107 1678.04 766.418C1689.28 754.717 1691.92 735.958 1707.14 727.811C1734.89 712.632 1767.49 711.102 1796.9 700.464C1820.19 687.984 1843.24 675.011 1865.07 660.118Z" fill="#6B567A"/>
<path d="M1525.58 665.826C1526.15 657.886 1521.58 644.576 1532.98 644.42C1533.11 653.813 1533.39 672.598 1533.55 681.99C1536.61 682.665 1539.7 683.236 1542.71 684.248C1544.71 697.298 1550.16 709.285 1555.2 721.376C1556.18 721.895 1558.13 722.959 1559.12 723.478C1559.56 727.318 1557.97 728.693 1554.37 727.551C1548.42 714.578 1542.5 701.346 1540.24 687.102C1537.08 686.998 1533.44 688.632 1530.98 685.83C1529.91 674.492 1530.74 662.998 1529.94 651.659C1528.85 655.214 1526.67 662.271 1525.58 665.826Z" fill="#6B567A"/>
<path d="M1140.81 659.858C1147.09 652.931 1156.49 650.31 1165.27 647.975C1158.65 654.488 1149.48 657.316 1140.81 659.858Z" fill="#6B567A"/>
<path d="M1318.09 652.568C1330.86 649.35 1324.11 666.604 1331.17 673.065C1328.65 671.378 1322.47 672.131 1323.17 667.824C1327.17 643.305 1321.83 656.096 1318.06 660.87C1318.06 658.795 1318.09 654.643 1318.09 652.568Z" fill="#6B567A"/>
<path d="M1422.18 673.947C1420.42 666.111 1421.66 655.344 1431.71 654.929C1431.79 656.901 1431.94 660.87 1432.02 662.842C1424.36 656.537 1424.44 669.069 1422.18 673.947Z" fill="#6B567A"/>
<path d="M1117.58 672.883C1124.35 668.317 1130.74 662.245 1138.97 660.481C1133.96 667.59 1125.68 670.704 1117.58 672.883Z" fill="#6B567A"/>
<path d="M1404.84 675.192C1405.96 670.6 1414.47 659.443 1413.56 670.263C1406.06 680.33 1390.31 685.571 1379.48 678.047L1380.57 676.178C1388.67 677.605 1396.82 678.358 1404.84 675.192Z" fill="#6B567A"/>
<path d="M1518.1 697.61C1516.75 686.79 1521.11 677.346 1525.11 667.772C1525.97 678.462 1521.58 687.932 1518.1 697.61Z" fill="#6B567A"/>
<path d="M1096.73 686.323C1101.93 680.563 1108.62 676.334 1115.89 673.688C1112.13 680.823 1104.31 684.585 1096.73 686.323Z" fill="#6B567A"/>
<path d="M1364.48 680.771L1366.66 682.094L1367.64 684.196C1370.78 690.06 1377.51 683.936 1379.56 680.096C1383.66 692.161 1359.18 694.081 1364.48 680.771Z" fill="#6B567A"/>
<path d="M1432.31 685.83C1429.74 694.989 1445.7 714.267 1453.2 701.943C1451.78 705.731 1451.91 717.458 1444.87 709.701C1433.68 706.561 1428.39 697.506 1432.31 685.83Z" fill="#6B567A"/>
<path d="M1072.93 698.803C1076.04 692.421 1084.4 692.265 1090.19 689.437C1087.26 696.183 1079.03 696.624 1072.93 698.803Z" fill="#6B567A"/>
<path d="M1458.47 693.718C1463.22 700.126 1458.16 709.804 1461.17 716.706C1467.35 725.969 1482.49 716.654 1489.68 724.905C1479.29 724.438 1467.25 724.905 1458.19 719.56C1457.44 710.972 1458.19 702.254 1458.47 693.718Z" fill="#6B567A"/>
<path d="M1510 699.789C1512.55 700.049 1515.12 700.075 1517.71 699.971C1518.93 708.637 1506.52 709.285 1510 699.789Z" fill="#6B567A"/>
<path d="M1564.91 699.659C1569.63 697.558 1570.1 701.891 1570.72 705.445C1565.32 718.522 1575.91 716.42 1581.94 718.211C1582.87 724.075 1580.64 737.229 1589.9 735.491C1594.81 735.491 1591.96 727.499 1595.51 725.009C1595.41 729.419 1595.49 733.804 1595.23 738.215C1581.05 746.051 1577.7 729.471 1579.21 720.961C1572.88 718.963 1561.32 720.909 1569.01 706.665C1562.54 707.91 1563.09 716.446 1559.48 720.883C1559.66 713.489 1561.87 706.353 1564.91 699.659Z" fill="#6B567A"/>
<path d="M1600.96 717.925C1602.88 712.866 1599.95 700.619 1608.02 702.046C1610.18 711.517 1610.78 721.117 1610.41 730.846C1608.21 724.645 1607.71 718.055 1605.79 711.854C1604.1 713.826 1602.49 715.85 1600.96 717.925Z" fill="#6B567A"/>
<path d="M925.741 703.655C928.986 708.766 931.063 714.527 934.022 719.819C938.279 719.69 946.768 719.482 950.999 719.378C959.125 719.43 967.458 719.742 975.661 719.586C995.753 721.713 1015.61 717.874 1035.47 715.435C1007.15 729.471 974.129 719.949 943.913 722.648C928.078 729.938 927.091 713.048 925.741 703.655Z" fill="#6B567A"/>
<path d="M1494.38 704.382C1495.54 704.459 1497.85 704.615 1499 704.693C1500.03 712.555 1500.45 720.494 1501.72 728.382C1496.63 728.459 1496.48 723.141 1494.87 719.612C1494.74 715.798 1494.5 708.196 1494.38 704.382Z" fill="#6B567A"/>
<path d="M915.903 712.555C918.032 711.283 920.212 710.064 922.445 708.922C919.07 717.251 915.098 725.398 909.777 732.663C904.195 731.755 901.496 728.122 902.508 722.466C904.221 724.464 905.987 726.436 907.804 728.382C911.801 723.867 914.787 718.496 915.903 712.555Z" fill="#6B567A"/>
<path d="M874.186 727.577C876.107 725.112 878.703 723.556 881.922 724.308C883.116 728.823 883.947 733.415 884.959 737.982C894.798 740.057 888.62 723.192 898.848 724.101C894.435 730.354 895.187 743.845 884.492 740.81C879.378 741.303 882.649 733.13 881.014 730.042C876.679 732.455 872.914 735.672 868.839 738.501C869.618 734.427 872.447 731.236 874.186 727.577Z" fill="#6B567A"/>
<path d="M1611.09 732.715C1616.07 733.078 1621.68 732.87 1624.3 738.034C1630.76 747.192 1646.75 741.666 1650.13 753.601C1640.76 747.452 1628.17 747.971 1620.25 739.487C1617.42 736.892 1614.02 735.102 1611.09 732.715Z" fill="#6B567A"/>
<path d="M847.241 751.785C849.084 749.605 851.031 747.504 853.082 745.506C856.197 747.322 856.56 751.474 858.352 754.354C854.613 753.575 850.875 752.849 847.241 751.785Z" fill="#6B567A"/>
<path d="M1651.79 754.457C1657.58 757.259 1666.2 757.156 1669 763.798C1662.95 761.541 1654.88 761.022 1651.79 754.457Z" fill="#6B567A"/>
<path d="M809.211 779.028C813.65 782.064 816.869 787.902 823.073 786.371C819.569 793.272 812.819 788.421 809.185 784.555C809.185 783.153 809.211 780.403 809.211 779.028Z" fill="#6B567A"/>
<path d="M785.406 798.15C786.678 795.063 783.07 786.734 788.262 787.486C795.375 785.307 792.675 793.739 793.947 797.891C801.709 799.629 804.305 791.352 808.744 786.89C808.64 795.374 802.591 802.665 793.869 803.08C791.87 799.603 790.443 795.867 788.703 792.287C792.052 803.469 785.458 816.598 773.595 811.668C771.856 821.865 763.03 831.153 752.049 827.755C741.302 835.071 728.141 832.088 716.07 833.93C714.382 829.701 713.11 825.29 711.812 820.957C703.48 832.944 709.606 849.575 701.559 861.614C697.561 863.352 693.823 865.869 689.566 866.855C683.024 866.725 671.835 860.498 677.78 877.311C675.885 889.636 660.465 891.789 651.068 897.368C651.068 898.898 651.068 901.96 651.094 903.491C673.964 916.386 693.511 934.185 715.135 949C718.276 957.562 707.581 957.977 702.234 960.909C674.016 972.948 648.083 999.024 615.271 994.198C591.726 977.307 570.05 957.977 547.284 940.075C538.951 933.614 528.879 929.463 521.948 921.394C508.371 918.565 497.442 910.574 487.76 900.922C485.787 890.622 485.683 880.036 483.788 869.761C475.299 880.295 474.365 894.955 468.498 906.812C453.52 910.496 462.709 890.725 453.675 885.744C445.446 881.099 446.615 869.657 444.46 862.055C438.801 871.681 437.918 883.071 434.699 893.58C433.687 893.58 431.714 893.605 430.702 893.605C429.715 880.736 420.811 870.28 419.851 857.463C427.171 835.201 415.49 846.565 409.182 849.497C408.922 838.263 409.311 827.002 409.311 815.794C416.632 826.224 432.882 823.681 440.904 833.644C450.742 844.256 461.463 854.583 475.87 858.319C531.137 872.797 588.896 879.205 642.606 898.924C651.094 894.436 658.986 888.857 667.708 884.758C676.897 880.321 676.82 868.542 678.663 859.902C680.584 853.934 673.912 837.718 683.725 842.596C686.243 848.2 687.852 854.142 690.059 859.85C703.272 855.361 705.478 841.402 705.115 829.104C705.167 824.823 705.063 820.542 705.167 816.287C708.438 809.956 712.228 809.956 715.317 816.442C715.395 817.765 715.551 820.412 715.654 821.735C715.784 824.485 716.693 826.976 718.406 829.208C722.404 826.431 725.545 822.669 728.764 819.089L730.659 818.388C730.555 825.783 734.994 835.279 745.689 828.767C746.805 824.408 746.987 819.685 749.557 815.845C755.528 815.326 755.372 825.938 761.524 823.032C769.39 821.216 770.48 812.083 769.987 805.311C769.987 801.861 769.987 798.436 770.013 795.011C773.751 792.442 776.061 794.674 777.723 798.28C777.8 799.655 777.956 802.379 778.034 803.755C777.982 813.951 789.196 804.248 785.406 798.15Z" fill="#6B567A"/>
<path d="M871.201 164.576C879.405 170.18 883.298 181.934 894.513 183.646C893.786 184.684 892.332 186.812 891.605 187.85C875.095 197.995 882.727 181.986 874.888 179.158C872.889 174.539 870.968 169.713 871.201 164.576Z" fill="#2F294C"/>
<path d="M842.049 443.443C849.577 436.931 858.352 443.417 866.295 439.966C867.671 440.382 870.474 441.186 871.876 441.575C871.123 443.002 869.592 445.83 868.839 447.231C859.909 445.752 850.849 445.571 842.049 443.443Z" fill="#2F294C"/>
<path d="M951.7 549.432C953.959 549.873 956.217 550.315 958.501 550.782C965.121 559.785 972.312 569.022 982.773 573.744C986.875 575.067 991.054 576.286 995.208 577.584C998.972 580.23 1005.33 582.358 1001.36 587.755C994.403 584.278 986.953 579.608 978.672 584.07C971.377 586.95 967.847 578.751 966.497 573.017C964.991 566.505 958.943 562.846 954.244 558.773C953.362 555.659 952.401 552.572 951.7 549.432Z" fill="#2F294C"/>
<path d="M1201.5 637.311C1212.33 636.715 1223.18 637.104 1234.08 637.311C1240.73 641.099 1248.18 642.76 1255.84 642.008C1276.4 649.402 1296.2 659.002 1317.07 665.515C1317.33 664.347 1317.83 662.038 1318.06 660.87C1321.82 656.096 1327.17 643.305 1323.17 667.824C1322.47 672.131 1328.65 671.378 1331.17 673.065C1336.08 673.765 1340.96 672.52 1345.79 671.794C1346.98 674.674 1345.21 679.525 1348.56 681.056C1353.24 685.804 1356.45 681.575 1357.39 676.412C1360.66 671.352 1358.4 660.17 1364.5 657.861C1364.32 665.411 1364.32 673.143 1364.48 680.771C1359.18 694.081 1383.66 692.161 1379.56 680.096L1379.48 678.046C1390.31 685.571 1406.06 680.33 1413.56 670.263C1414.91 673.324 1411.25 681.887 1416.5 681.134C1421.95 682.795 1421.69 677.787 1422.18 673.947C1424.44 669.069 1424.36 656.537 1432.02 662.842C1432.2 670.522 1431.97 678.098 1432.31 685.83C1428.39 697.506 1433.68 706.561 1444.87 709.701C1451.91 717.458 1451.78 705.731 1453.2 701.943C1454.97 699.192 1454.55 687.335 1458.47 693.718C1458.19 702.254 1457.44 710.972 1458.19 719.56C1467.25 724.905 1479.29 724.438 1489.68 724.905C1493.57 725.605 1495.28 723.841 1494.87 719.612C1496.48 723.141 1496.63 728.459 1501.72 728.382C1514.26 723.426 1503.62 705.757 1507.54 696.286C1508.16 697.169 1509.38 698.933 1510 699.789C1506.52 709.285 1518.93 708.637 1517.71 699.971L1518.1 697.61C1521.58 687.932 1525.97 678.462 1525.11 667.772L1525.58 665.826C1526.67 662.271 1528.85 655.214 1529.94 651.659C1530.74 662.998 1529.91 674.492 1530.98 685.83C1533.44 688.632 1537.08 686.998 1540.24 687.102C1542.5 701.346 1548.42 714.578 1554.37 727.551C1557.97 728.693 1559.56 727.318 1559.12 723.478L1559.48 720.883C1563.09 716.446 1562.54 707.91 1569.01 706.665C1561.32 720.909 1572.88 718.963 1579.21 720.961C1577.7 729.471 1581.05 746.051 1595.23 738.215C1595.49 733.804 1595.41 729.419 1595.51 725.009C1597.3 722.648 1599.28 720.39 1600.96 717.925C1602.49 715.85 1604.1 713.826 1605.79 711.854C1607.71 718.055 1608.21 724.645 1610.41 730.847L1611.09 732.715C1614.02 735.102 1617.42 736.892 1620.25 739.486C1628.17 747.971 1640.76 747.452 1650.13 753.601L1651.79 754.457C1654.88 761.022 1662.95 761.541 1669 763.798L1670.79 764.706C1677.05 774.565 1662.12 780.299 1654.28 778.354C1637.41 772.23 1617.24 775.136 1606.44 790.574C1592.99 812.472 1584.19 841.921 1557.59 851.028C1522.51 863.223 1484.43 854.297 1448.3 858.345C1424.44 860.369 1403.88 876.299 1394.74 898.224C1384.41 922.25 1356.45 925.052 1333.61 924.455C1287.14 918.903 1238.86 920.797 1195.72 940.542C1151.3 957.977 1117.5 994.639 1073.71 1013.09C1041.23 1025.54 1004.19 1018.92 972.572 1034.18C963.823 1038.31 955.309 1042.87 946.794 1047.41C946.794 1048.42 946.846 1050.45 946.872 1051.46C980.515 1061.45 1015.51 1065.45 1050.11 1070.84C1075.94 1076.21 1101.95 1080.91 1128.27 1083.22C1142.01 1084.26 1154.78 1091.26 1168.77 1089.89C1192.89 1077.85 1218.9 1070.32 1245.38 1065.68C1280.58 1056.6 1316.45 1050.68 1351.76 1042.12C1363.85 1039.47 1373.15 1030.99 1380.99 1021.83C1396.46 1004.73 1420.52 1005.72 1441.29 1002.06C1442.61 998.764 1443.81 995.443 1445.34 992.252C1450.14 1000.32 1458.86 1000.92 1467.71 1000.19C1461.2 984.338 1482.02 983.223 1479.42 969.134C1490.51 967.318 1495.7 988.516 1506.13 978.682C1505.2 968.096 1519.09 969.16 1518.59 958.808C1523.6 959.664 1526.59 964.282 1530.77 966.799C1540.09 962.751 1540.58 949.337 1550.89 947.236C1550.78 942.28 1549.23 937.506 1548.84 932.628C1559.9 931.928 1560.99 948.87 1572.17 949.778C1581.18 946.353 1577.78 962.129 1587.07 958.626C1587.36 956.784 1587.91 953.125 1588.19 951.309C1591.51 952.632 1595.56 958.704 1598.89 954.293C1610.23 937.48 1623.76 922.224 1640.58 910.652C1651.84 908.187 1662.38 903.621 1672.3 897.783C1679.75 889.532 1673.47 876.689 1676.71 867.141C1684.34 875.858 1687.43 887.742 1689.85 898.795C1709.16 909.692 1698.21 883.512 1709.76 883.512C1720.58 884.135 1712.92 868.801 1715.57 862.055C1721.18 871.318 1724.09 881.93 1729.28 891.452C1737.33 877.701 1739.95 862.6 1743.69 847.448C1746.2 848.952 1748.59 850.691 1751.14 852.248C1751.55 838.522 1753.08 824.849 1754.17 811.175L1756.28 810.76C1758.04 822.41 1756.04 835.746 1762.69 846.202C1767.13 852.481 1765.28 860.991 1769.41 867.478C1772.92 865.065 1776.63 863.586 1780.57 865.999C1795.76 866.492 1812.14 866.803 1826.05 859.486C1842.1 853.389 1850.01 835.72 1865.8 829.441C1883.97 826.068 1902.71 824.952 1920 817.817V1213H-110V782.531C-101.018 779.858 -91.8286 777.16 -82.3017 777.861C-63.4554 786.526 -52.8641 808.477 -31.9151 813.147C-24.5946 814.418 -23.5043 804.299 -18.4423 800.771C-2.6592 793.636 4.16802 814.029 16.9918 815.923C43.3403 801.809 71.5059 784.996 102.864 790.133C127.967 790.911 151.304 801.809 173.317 812.939C179.859 815.638 185.518 822.021 193.098 821.009C195.98 816.779 194.318 807.595 201.223 808.139C201.613 814.859 201.898 821.605 202.08 828.377C208.077 832.918 215.215 830.816 221.887 829.415C224.249 833.411 225.677 837.899 227.883 841.999C237.826 835.409 232.738 818.959 240.24 810.423C241.953 821.476 242.576 832.71 241.2 843.867C243.563 846.643 248.08 853.026 251.48 847.863C255.686 844.879 257.658 833.203 263.837 839.301C267.808 843.244 272.87 837.951 277.595 838.574C285.928 840.442 281.1 824.952 289.017 826.821C290.315 831.05 291.509 835.331 292.989 839.56C303.502 834.319 295.948 814.315 307.682 813.355C308.798 831.932 307.162 851.313 313.522 869.061C319.337 867.737 322.374 872.252 325.905 876.014C328.89 868.957 328.501 860.602 333.329 854.427C334.783 864.676 336.003 875.028 337.197 885.329C346.984 892.464 359.392 888.312 369.594 893.761C370.373 888.857 369.983 883.175 374.942 880.425C374.942 888.416 372.086 900.118 382.755 896.096C389.323 885.406 378.991 873.264 383.482 861.848C385.221 866.674 386.701 872.252 393.165 870.539C394.774 861.588 391.919 851.236 397.708 843.556C406.352 830.505 400.33 812.81 408.662 799.707C409 805.052 409.156 810.423 409.311 815.794C409.311 827.002 408.922 838.263 409.182 849.497C415.49 846.565 427.171 835.201 419.851 857.463C420.811 870.28 429.715 880.736 430.702 893.605C431.714 893.605 433.687 893.579 434.699 893.579C437.918 883.071 438.801 871.681 444.46 862.055C446.615 869.657 445.446 881.099 453.675 885.744C462.709 890.725 453.52 910.496 468.498 906.812C474.365 894.955 475.299 880.295 483.788 869.761C485.683 880.036 485.787 890.622 487.76 900.922C497.442 910.574 508.371 918.565 521.948 921.393C528.879 929.463 538.951 933.614 547.284 940.075C570.05 957.977 591.726 977.307 615.271 994.198C648.083 999.024 674.016 972.948 702.234 960.909C707.581 957.977 718.276 957.562 715.135 949C693.511 934.185 673.964 916.386 651.094 903.491C651.068 901.96 651.068 898.898 651.068 897.368C660.465 891.789 675.885 889.636 677.78 877.311C671.836 860.498 683.024 866.725 689.566 866.855C693.823 865.869 697.561 863.352 701.559 861.614C709.606 849.575 703.48 832.944 711.812 820.957C713.11 825.29 714.383 829.701 716.07 833.93C728.141 832.088 741.302 835.071 752.049 827.755C763.03 831.153 771.856 821.865 773.595 811.668C785.458 816.598 792.052 803.469 788.703 792.286C790.443 795.867 791.87 799.603 793.869 803.08C802.591 802.665 808.64 795.374 808.744 786.89L809.185 784.555C812.819 788.421 819.569 793.272 823.073 786.371C824.267 785.229 826.63 782.946 827.824 781.804C828.317 781.363 829.303 780.429 829.771 779.988C833.509 777.523 838.259 776.044 840.907 772.282C843.866 765.77 843.659 757.934 847.241 751.785C850.875 752.849 854.613 753.575 858.352 754.354C861.622 755.262 864.919 756.092 868.32 756.481C868.45 751.992 868.709 742.989 868.839 738.501C872.915 735.672 876.679 732.455 881.014 730.042C882.649 733.13 879.378 741.303 884.492 740.81C895.188 743.845 894.435 730.354 898.848 724.101C899.626 720.39 900.847 719.845 902.508 722.466C901.496 728.122 904.195 731.755 909.776 732.663C915.098 725.398 919.07 717.251 922.444 708.922C923.405 706.328 924.365 703.733 925.352 701.164L925.741 703.655C927.091 713.048 928.078 729.938 943.913 722.648C974.129 719.949 1007.15 729.471 1035.47 715.435C1048.42 711.205 1062.83 708.585 1072.93 698.803C1079.03 696.624 1087.26 696.183 1090.19 689.437C1092.37 688.425 1094.55 687.387 1096.73 686.323C1104.31 684.585 1112.13 680.823 1115.89 673.688L1117.58 672.883C1125.68 670.704 1133.96 667.59 1138.97 660.481L1140.81 659.858C1149.48 657.316 1158.65 654.488 1165.27 647.975C1168.41 646.989 1171.55 645.951 1174.61 644.758C1183.8 643.279 1193.74 643.045 1201.5 637.311Z" fill="#2F294C"/>
<path d="M1194.03 189.251C1217.44 184.97 1243.69 188.498 1260.85 206.271C1277.02 207.387 1288.73 191.871 1304.72 190.626C1324.52 184.269 1350.41 191.378 1359.86 211.123C1376.05 211.331 1394.15 203.729 1408.66 213.977C1418.39 215.015 1412.68 220.671 1408.04 220.438C1327.82 223.759 1247.43 220.645 1167.19 222.176C1123.16 226.795 1078.67 223.785 1034.46 224.252C1042.48 213.303 1059.85 219.011 1070.96 219.011C1086.9 214.185 1103.46 212.758 1119.94 215.664C1128.92 202.95 1145.36 200.952 1159.27 206.271C1169.91 198.825 1180.97 191.768 1194.03 189.251Z" fill="#B1FCFC" fill-opacity="0.5"/>
<path d="M459.387 210.111C507.437 205.493 552.398 237.77 577.345 277C579.577 281.437 584.509 276.377 587.495 275.469C599.462 267.815 614.752 270.643 627.004 275.962C634.922 254.79 659.739 238.704 682.038 247.292C701.715 252.766 710.826 274.509 727.855 283.227C738.031 275.339 747.662 262.859 762.225 265.973C775.49 265.091 789.898 271.889 796.621 283.538C805.421 293.605 819.024 286.548 829.926 284.732C845.865 284.68 861.077 291.115 874.654 298.872C881.948 303.335 859.572 311.638 860.896 304.866C787.328 304.892 713.76 304.97 640.192 304.84C617.711 301.182 595.127 307.642 572.75 302.427C468.888 301.856 365.025 302.842 261.189 301.986C234.321 299.262 206.96 305.956 180.482 299.106C195.435 283.045 220.849 283.435 240.474 289.298C250.961 288.805 256.698 276.792 266.537 273.938C283.592 268.412 302.646 269.268 317.546 279.776C329.565 288.079 337.509 276.196 345.244 269.631C355.239 261.822 368.893 255.958 381.561 259.331C390.725 257.826 397.266 267.037 406.067 265.765C412.297 239.456 430.494 212.991 459.387 210.111Z" fill="#B1FCFC" fill-opacity="0.5"/>
<path d="M1416.55 216.805C1427.63 216.676 1438.9 216.261 1450.06 216.779L1450.19 219.192C1438.9 220.412 1426.93 216.935 1416.21 221.476C1416.29 220.308 1416.45 217.973 1416.55 216.805Z" fill="#B1FCFC" fill-opacity="0.5"/>
<path d="M1525.76 313.039C1543.23 305.177 1562.7 308.862 1580.82 311.794C1623.86 324.118 1653.27 369.342 1650.39 413.502C1667.65 414.955 1686.42 412.023 1701.84 421.778C1720.01 432.209 1736.5 449.229 1740.75 470.271C1732.37 474.008 1718.51 471.335 1714.27 480.624L1713 481.921C1700.1 484.075 1692.39 495.88 1680.71 500.862C1632.48 497.774 1584.09 500.68 1535.83 499.097C1468.47 493.156 1400.64 500.836 1333.35 494.479C1265.05 493.026 1196.62 496.607 1128.43 492.403C1084.2 490.769 1039.94 492.351 995.727 491.521C993.469 479.612 1009.64 478.678 1016.65 473.618C1048.29 456.338 1084.56 485.216 1115.74 466.535C1134.95 460.23 1154.86 464.537 1174.04 467.962C1177.62 459.737 1179.67 449.93 1187.28 444.325C1195.38 438.358 1206.07 437.761 1215.7 439.344C1218.92 429.744 1220.17 416.849 1231.18 412.905C1243.4 406.289 1257.24 410.855 1269.28 415.499C1275.59 418.821 1280.68 413.372 1285.59 410.206C1295.06 402.63 1308.69 404.421 1319.83 405.51C1328.13 392.693 1333.79 376.062 1349.03 369.938C1364.14 359.845 1383.19 360.754 1400.04 365.45C1408.71 370.198 1415.93 377.229 1424.18 382.704C1435.06 377.048 1446.17 368.07 1459.43 373.908C1463.82 373.701 1471.04 377.644 1472.41 371.391C1479.45 344.745 1499.98 322.691 1525.76 313.039Z" fill="#B1FCFC" fill-opacity="0.5"/>
<path d="M567.376 427.045C607.094 422.531 647.59 441.705 672.355 472.606C676.976 477.562 680.921 483.452 687.151 486.643C697.587 484.282 707.14 474.942 718.354 477.796C743.197 476.758 758.202 499.279 770.74 517.208C777.307 517.856 791.169 516.896 789.456 507.452C800.411 506.544 811.392 507.27 822.424 507.218C821.048 511.733 814.507 509.19 811.028 510.721C817.881 515.21 826.11 516.611 834.106 517.545C830.601 508.256 839.298 513.835 838.415 520.321C841.478 518.686 844.178 516.481 847.163 514.691C846.592 516.896 846.125 519.102 845.684 521.333C851.317 521.67 855.937 525.095 860.999 527.171C865.932 527.015 870.76 525.925 875.666 525.406C871.461 534.384 882 527.975 886.673 527.56C884.934 526.055 883.22 524.576 881.507 523.097C904.922 539.132 885.998 511.759 896.719 518.297C917.876 536.459 950.688 529.999 970.08 551.093C966.212 551.015 962.37 550.756 958.502 550.782C956.217 550.315 953.959 549.873 951.7 549.432C952.401 552.572 953.362 555.659 954.245 558.773C954.79 565.752 960.968 569.852 966.497 573.017C967.847 578.751 971.378 586.95 978.672 584.07C986.953 579.608 994.403 584.278 1001.36 587.755C1004.92 590.531 1008.73 593.073 1013.41 593.359C1012.73 590.738 1012.08 588.144 1011.46 585.523C1017.48 587.417 1023.35 590.09 1029.76 590.453C1030.69 583.707 1024.98 579.426 1021.76 574.34C1027.89 575.716 1035.91 581.372 1033.45 588.533C1032.12 594.215 1036.38 599.326 1041 602.129C1052.63 609.316 1062.29 619.175 1073.63 626.803C1079.34 630.513 1081.73 638.557 1089 639.984C1094.61 642.604 1104.08 642.526 1096.4 654.124C1065.87 671.586 1036.69 692.784 1002.84 703.447C983.371 706.639 963.564 706.483 943.991 704.408C931.738 710.712 930.803 699.633 926.312 693.666C922.367 687.776 919.459 694.418 920.342 699.011C919.511 700.152 917.824 702.436 916.993 703.577C901.677 705.938 885.427 705.108 871.253 712.295C855.782 717.744 845.632 734.064 828.187 734.323C800.826 737.696 773.206 738.578 745.871 742.47C724.429 743.197 702.545 747.114 681.466 741.095C659.843 734.764 640.243 723.27 619.372 714.993C595.386 704.641 569.427 700.23 544.169 694.159C509.591 686.193 471.613 686.479 440.696 667.279C444.901 661.649 449.652 656.485 454.169 651.115C462.398 649.013 464.189 661.726 473.275 657.523C472.496 642.215 492.406 644.187 498.974 633.393C508.242 624.286 516.522 612.533 529.891 609.445C537.368 605.969 548.764 589.83 526.023 598.003C509.202 589.96 512.317 610.353 502.011 615.335C489.525 616.866 490.615 633.783 477.688 633.056C472.652 638.946 469.355 646.444 460.607 647.197C469.614 623.093 499.727 617.774 511.149 596.395C519.586 594.63 527.633 591.05 536.277 590.453C553.099 602.388 543.65 578.284 554.293 583.266C560.16 586.094 562.756 579.763 565.923 576.079C574.463 579.659 588.715 581.164 591.077 569.644C584.483 569.618 571.27 569.54 564.677 569.515C571.296 561.757 588.299 571.435 596.658 562.172C589.26 562.405 581.68 563.132 574.385 563.443C581.654 559.318 594.088 562.924 598.865 556.749C579.577 556.593 560.393 554.725 541.339 551.923C415.022 550.133 288.991 542.271 162.57 543.205C137.416 539.495 111.95 541.597 86.6401 540.663C89.5476 537.368 92.5069 533.813 96.7642 532.23C123.58 520.684 152.992 526.107 180.171 533.061C187.803 513.549 207.272 501.873 227.468 499.746C242.472 501.744 257.036 506.258 271.91 509.164C285.331 517.259 287.771 503.119 290.782 495.179C300.128 463.551 327.229 437.943 359.885 432.053C399.966 430.159 429.793 460.568 458.504 483.893C464.838 489.03 472.288 496.529 481.374 494.064C488.149 485.787 492.017 475.538 499.026 467.469C514.498 444.896 541.106 432.027 567.376 427.045Z" fill="#B1FCFC" fill-opacity="0.5"/>
<path d="M1770.14 476.524C1778.29 479.949 1791.32 477.069 1795.81 486.591C1787.14 487.37 1779.82 481.662 1771.31 481.584L1769.07 480.805C1769.36 479.716 1769.88 477.588 1770.14 476.524Z" fill="#B1FCFC" fill-opacity="0.5"/>
<path d="M855.626 512.459C858.663 509.683 883.869 514.405 876.237 522.371C870.734 521.878 860.065 512.849 860.221 522.942C855.6 521.229 855.133 516.818 855.626 512.459Z" fill="#B1FCFC" fill-opacity="0.5"/>
<path d="M978.205 543.984C981.683 543.335 984.773 545.774 988.017 546.656C987.317 555.789 969.171 550.159 978.205 543.984Z" fill="#B1FCFC" fill-opacity="0.5"/>
<path d="M993.78 559.37C1002.19 558.228 1009.85 564.948 1013.9 571.72C1010.5 574.859 1002.45 581.579 1005.07 572.472C998.972 568.529 993.832 568.944 995.208 577.584C991.054 576.287 986.875 575.067 982.773 573.744C985.707 568.425 989.393 563.625 993.78 559.37Z" fill="#B1FCFC" fill-opacity="0.5"/>
<path d="M545.207 577.843C555.954 578.777 535.888 587.806 534.512 580.697C537.835 578.933 542.092 580.282 545.207 577.843Z" fill="#B1FCFC" fill-opacity="0.5"/>
<path d="M1050.45 584.927C1056.99 583.655 1057.25 591.698 1061.82 594.319C1069.63 599.482 1074.25 608.434 1082.74 612.585C1087.91 617.203 1095.51 618.578 1100.06 624.001C1095.75 623.716 1089.1 625.713 1088.35 619.668C1082.07 619.409 1077.08 616.606 1072.96 612.014C1060.83 610.146 1048.16 597.796 1050.45 584.927Z" fill="#B1FCFC" fill-opacity="0.5"/>
<path d="M1102.08 626.673C1114.15 627.115 1106.44 645.432 1120.62 642.76C1118.95 648.131 1110.57 649.636 1108.23 644.109C1116.15 631.292 1100.94 634.95 1102.08 626.673Z" fill="#B1FCFC" fill-opacity="0.5"/>
</g>
<defs>
<clipPath id="clip0">
<rect width="1920" height="953" fill="white"/>
</clipPath>
</defs>
</svg>
